HIERARCHY
ROOT HipCenter
{
    OFFSET 0.0 0.0 -0.0
    CHANNELS 6 Xposition Yposition Zposition Zrotation Xrotation Yrotation
    JOINT Spine
    {
        OFFSET 0.0 26.317174911499023 0.0
        CHANNELS 3 Zrotation Xrotation Yrotation
        JOINT ShoulderCenter
        {
            OFFSET 0.0 19.73381996154785 0.0
            CHANNELS 3 Zrotation Xrotation Yrotation
            JOINT LeftShoulder
            {
                OFFSET 13.73247241973877 0.0 0.0
                CHANNELS 3 Zrotation Xrotation Yrotation
                JOINT LeftElbow
                {
                    OFFSET 21.650636672973633 0.0 0.0
                    CHANNELS 3 Zrotation Xrotation Yrotation
                    JOINT LeftWrist
                    {
                        OFFSET 22.609058380126953 0.0 0.0
                        CHANNELS 3 Zrotation Xrotation Yrotation
                        JOINT LeftHand
                        {
                            OFFSET 6.248835563659668 0.0 0.0
                            CHANNELS 3 Zrotation Xrotation Yrotation
                            End Site
                            {
                                OFFSET 2.4995341300964355 0.0 0.0
                            }
                        }
                    }
                }
            }
            JOINT RightShoulder
            {
                OFFSET -13.73247241973877 0.0 0.0
                CHANNELS 3 Zrotation Xrotation Yrotation
                JOINT RightElbow
                {
                    OFFSET -21.650636672973633 0.0 0.0
                    CHANNELS 3 Zrotation Xrotation Yrotation
                    JOINT RightWrist
                    {
                        OFFSET -22.609058380126953 0.0 0.0
                        CHANNELS 3 Zrotation Xrotation Yrotation
                        JOINT RightHand
                        {
                            OFFSET -6.248835563659668 0.0 0.0
                            CHANNELS 3 Zrotation Xrotation Yrotation
                            End Site
                            {
                                OFFSET -2.4995341300964355 0.0 0.0
                            }
                        }
                    }
                }
            }
            End Site
            {
                OFFSET 0.0 7.893527030944824 0.0
            }
        }
    }
    JOINT LeftHip
    {
        OFFSET 5.664432525634766 0.0 0.0
        CHANNELS 3 Zrotation Xrotation Yrotation
        JOINT LeftKnee
        {
            OFFSET 0.0 -32.11784362792969 0.0
            CHANNELS 3 Zrotation Xrotation Yrotation
            JOINT LeftAnkle
            {
                OFFSET 0.0 -34.591773986816406 0.0
                CHANNELS 3 Zrotation Xrotation Yrotation
                JOINT LeftFoot
                {
                    OFFSET 0.0 -7.891945838928223 0.0
                    CHANNELS 3 Zrotation Xrotation Yrotation
                    End Site
                    {
                        OFFSET 0.0 0.0 3.156778335571289
                    }
                }
            }
        }
    }
    JOINT RightHip
    {
        OFFSET -5.664432525634766 0.0 0.0
        CHANNELS 3 Zrotation Xrotation Yrotation
        JOINT RightKnee
        {
            OFFSET 0.0 -32.11784362792969 0.0
            CHANNELS 3 Zrotation Xrotation Yrotation
            JOINT RightAnkle
            {
                OFFSET 0.0 -34.591773986816406 0.0
                CHANNELS 3 Zrotation Xrotation Yrotation
                JOINT RightFoot
                {
                    OFFSET 0.0 -7.891945838928223 0.0
                    CHANNELS 3 Zrotation Xrotation Yrotation
                    End Site
                    {
                        OFFSET 0.0 0.0 3.156778335571289
                    }
                }
            }
        }
    }
}
MOTION
Frames: 5
Frame Time: 0.03333333333333333
18.95833969116211 16.776689529418945 -381.8283996582031 -14.411572615977565 32.97591719332005 -149.07018078530425 -1.9694291834305284 -5.352723948818313 -0.7059232997226296 -8.52224730557898e-10 1.276144012965294e-06 -8.357150094142463 -85.33711940535404 6.974293818609712 10.002226805053954 3.6183831944848533e-06 -4.003777640420047e-06 15.169066749201942 179.99998838302022 -75.53341268724832 -162.60882098401385 3.531125038440127e-31 -3.1805546814635168e-15 1.2722218725854067e-14 68.13113759146052 15.831427843155707 -21.140870673460768 -4.1628511623189766e-07 1.4491731400815816e-06 -151.94213412942293 2.3602934269043204e-07 -12.83645037603654 -21.29690408454777 9.931289170612858e-32 3.1805546814635168e-15 -3.578124016646457e-15 -0.7233515755650233 18.374793220730457 24.3533099708944 -4.824558721997699 -3.3226910029990395 -0.9127761283468341 -28.41800912353759 12.42019315890734 11.638946618670397 3.1805546814635176e-15 3.1805546814635176e-15 2.3854160110976384e-15 -7.4417461997791765 14.935612025051935 -35.37381048039021 2.5820983226453103 -0.14977713877724677 0.008976899799661606 16.223856157294556 55.38194782296921 -16.37881470540915 4.4139062980501586e-32 6.3611093629270335e-15 -7.951386703658792e-16
18.949520111083984 16.977779388427734 -381.89288330078125 -15.255325500168144 34.38088417075722 -147.46969805303806 -1.7815423511009618 -5.013891569191828 -0.6342368940032208 -1.3464857066892977e-07 -2.729211155657216e-07 -13.868308206572557 -61.783588957120394 -47.94075030551551 18.555162865653184 2.342942440099829e-06 4.415643198664177e-06 18.096250282488022 -7.884212565841234e-06 -45.24221971135213 10.613452503365798 -1.7655625192200634e-31 3.1805546814635176e-15 6.361109362927035e-15 67.94433011531656 19.96225044865985 -13.673602476123326 4.163524687478567e-06 2.163163347763971e-06 -157.3993961985808 4.737447247273813e-07 -18.734257232154825 -23.10504244019948 -6.361109362927033e-15 -1.5448672043175555e-31 2.7829853462805768e-15 -0.6193969722768775 19.814551124797045 23.719470997698224 -4.026875060937697 -3.341661760128979 -0.8691006877912831 70.21936966479598 46.20762412217788 -46.5738370964663 1.5902773407317582e-15 -6.361109362927033e-15 -7.95138670365879e-16 -6.714721984560713 16.514003988801115 -34.261729751282665 1.896152466917508 0.06640087633174062 -0.004258290936510241 27.39887481872266 60.38532003732686 -27.64482968770142 -3.1805546814635168e-15 0.0 0.0
18.223600387573242 15.061050415039062 -382.672607421875 -15.292114484408762 34.90710094065074 -116.63155788681746 -2.5374013422469806 -2.275242562347716 -0.3704070882251529 -3.0376730845199265e-06 -3.9941213353188545e-07 -44.74892908026421 -68.42563134811932 -40.92214669672503 14.465585119565645 -4.4651285816077165e-06 -2.3822189256858638e-07 15.677454693392185 5.633030421654479e-07 -28.280580343588053 12.048214060054013 0.0 0.0 0.0 66.65254585515443 22.389369758055707 -17.696927321963486 1.485759172789898e-07 3.686759976133077e-06 -153.09989221176937 2.1004651491182993e-06 -29.24786362988547 -21.358042037668955 -6.3611093629270335e-15 3.1805546814635168e-15 1.7655625192200634e-31 -0.0252726772032322 14.554293295881326 7.412668292358435 5.830562846025512 -0.4395362685936358 -0.002390155108268237 73.6259634694543 32.951437633147705 -61.14324239011561 2.2069531490250793e-32 6.3611093629270335e-15 -3.975693351829396e-16 12.741767500787308 25.349101240524003 -13.132200447663939 -6.78332608313778 -11.814330033833757 -0.840993582399608 -27.98244112255519 2.3446240506426395 1.46414260630855 1.5902773407317584e-15 3.1805546814635168e-15 3.1805546814635168e-15
18.342199325561523 15.590808868408203 -382.2624816894531 -15.127906318997777 34.92962098264881 -163.1500847279309 -0.6552140085731227 -2.997159063844652 0.5306961981381342 3.124095582743173e-07 -4.2518433489253265e-06 2.644881686099125 -71.65343089874294 -34.07693032527745 10.40926871288883 -4.111012149985288e-07 4.629227121188956e-06 16.523459707918935 -6.469278853689416e-06 -41.86172052382318 16.015962817095993 -6.361109362927035e-15 -3.1805546814635176e-15 -1.7655625192200634e-31 67.40543028948629 20.851988519830208 -20.14969985836358 -1.7822145954533943e-06 -1.940559504325926e-06 -151.241981053846 -5.577028723273533e-07 -22.75543417274889 -25.075978034861492 -6.3611093629270335e-15 0.0 0.0 -6.117727028833022 21.401112744659063 36.125310404391875 -4.378088226473421 -5.310430832500986 -1.849791621403729 -26.725936639992245 3.677815079039927 3.7839961467993084 1.5902773407317584e-15 0.0 0.0 -12.322494120133593 10.67790195151486 -39.850608340383154 0.6107455072227067 4.862558133637276 -2.4605104579160244 -8.793801025997496 66.58388146106181 -16.5871832333659 -3.1805546814635168e-15 -8.827812596100317e-32 3.1805546814635168e-15
18.29853057861328 15.633270263671875 -382.05682373046875 -14.791408257202765 34.81181357442244 -161.5919827320918 -1.014288497719026 -2.481586206773997 0.4193346270766382 4.1710629201784693e-07 2.066096070934352e-06 1.6172384214511508 -72.32001434729884 -32.71997887281796 9.577960037193916 3.56437813853253e-06 2.1004937100172984e-06 15.599996101833492 -5.890033329178812e-06 -26.980145302080967 17.052763245913802 0.0 -3.1805546814635168e-15 0.0 67.63644937669491 20.43616213231096 -20.788772948858757 1.6241984413944715e-06 -6.690010728853718e-07 -150.46700863750706 1.514335528328783e-06 -26.367185321639685 -24.524816611273202 8.827812596100317e-32 -3.1805546814635168e-15 3.1805546814635168e-15 -5.62379703507843 21.241697163902398 34.382450861942125 -4.062765775386231 -5.715488246542527 -1.6971500872086096 -27.516620937140242 -15.40455940912232 -14.387517178211905 0.0 0.0 1.5902773407317584e-15 -12.28748984592907 12.150210764007769 -40.32620393652134 2.8292183294548763 2.896611166490648 -1.4345971407681748 -13.94924852364133 65.73277737125608 -11.312450747736463 0.0 0.0 2.3854160110976376e-15
